<?xml version="1.0" encoding="UTF-8" standalone="no"?>
<!-- Created with Inkscape (http://www.inkscape.org/) -->

<svg
   xmlns:osb="http://www.openswatchbook.org/uri/2009/osb"
   xmlns:dc="http://purl.org/dc/elements/1.1/"
   xmlns:cc="http://creativecommons.org/ns#"
   xmlns:rdf="http://www.w3.org/1999/02/22-rdf-syntax-ns#"
   xmlns:svg="http://www.w3.org/2000/svg"
   xmlns="http://www.w3.org/2000/svg"
   xmlns:sodipodi="http://sodipodi.sourceforge.net/DTD/sodipodi-0.dtd"
   xmlns:inkscape="http://www.inkscape.org/namespaces/inkscape"
   inkscape:export-ydpi="90.000000"
   inkscape:export-xdpi="90.000000"
   width="24"
   height="24"
   id="svg11300"
   sodipodi:version="0.32"
   inkscape:version="0.92.4 5da689c313, 2019-01-14"
   sodipodi:docname="activities.svg"
   inkscape:output_extension="org.inkscape.output.svg.inkscape"
   version="1.0"
   style="display:inline;enable-background:new">
  <sodipodi:namedview
     stroke="#ef2929"
     fill="#f57900"
     id="base"
     pagecolor="#bebebe"
     bordercolor="#525252"
     borderopacity="1"
     inkscape:pageopacity="1"
     inkscape:pageshadow="2"
     inkscape:zoom="8"
     inkscape:cx="-3.933413"
     inkscape:cy="5.92008"
     inkscape:current-layer="layer1"
     showgrid="true"
     inkscape:grid-bbox="true"
     inkscape:document-units="px"
     inkscape:showpageshadow="true"
     inkscape:window-width="1366"
     inkscape:window-height="709"
     inkscape:window-x="0"
     inkscape:window-y="28"
     width="400px"
     height="300px"
     inkscape:snap-nodes="true"
     inkscape:snap-bbox="true"
     gridtolerance="10000"
     inkscape:object-nodes="true"
     inkscape:snap-grids="true"
     showguides="false"
     inkscape:guide-bbox="true"
     inkscape:window-maximized="1"
     inkscape:bbox-nodes="true"
     inkscape:bbox-paths="false"
     inkscape:snap-bbox-edge-midpoints="false"
     inkscape:snap-bbox-midpoints="false"
     objecttolerance="10000"
     guidetolerance="10000"
     borderlayer="true"
     showborder="true"
     guidecolor="#ff0b00"
     guideopacity="1"
     guidehicolor="#001aff"
     guidehiopacity="0.49803922">
    <inkscape:grid
       type="xygrid"
       id="grid3123"
       empspacing="4"
       visible="true"
       enabled="true"
       snapvisiblegridlinesonly="true" />
    <sodipodi:guide
       position="12,12"
       orientation="1,0"
       id="guide4135"
       inkscape:locked="false" />
  </sodipodi:namedview>
  <defs
     id="defs3">
    <linearGradient
       id="selected_bg_color"
       osb:paint="solid">
      <stop
         style="stop-color:#5294e2;stop-opacity:1;"
         offset="0"
         id="stop4140" />
    </linearGradient>
  </defs>
  <metadata
     id="metadata4">
    <rdf:RDF>
      <cc:Work
         rdf:about="">
        <dc:format>image/svg+xml</dc:format>
        <dc:type
           rdf:resource="http://purl.org/dc/dcmitype/StillImage" />
        <dc:creator>
          <cc:Agent>
            <dc:title />
          </cc:Agent>
        </dc:creator>
        <dc:source />
        <cc:license
           rdf:resource="" />
        <dc:title />
        <dc:subject>
          <rdf:Bag />
        </dc:subject>
        <dc:date />
        <dc:rights>
          <cc:Agent>
            <dc:title />
          </cc:Agent>
        </dc:rights>
        <dc:publisher>
          <cc:Agent>
            <dc:title />
          </cc:Agent>
        </dc:publisher>
        <dc:identifier />
        <dc:relation />
        <dc:language />
        <dc:coverage />
        <dc:description />
        <dc:contributor>
          <cc:Agent>
            <dc:title />
          </cc:Agent>
        </dc:contributor>
      </cc:Work>
      <cc:Work
         rdf:about="">
        <dc:format>image/svg+xml</dc:format>
        <dc:type
           rdf:resource="http://purl.org/dc/dcmitype/StillImage" />
      </cc:Work>
    </rdf:RDF>
  </metadata>
  <g
     style="display:inline"
     inkscape:groupmode="layer"
     inkscape:label="Base"
     id="layer1"
     transform="translate(0,-276)">
    <path
       inkscape:connector-curvature="0"
       style="display:inline;fill:#1a1a1a;stroke-width:0.27994227;enable-background:new"
       d="m 11.268876,296.6556 c -1.019124,-0.34995 -1.9395856,-0.9778 -2.8462806,-1.94147 -2.327177,-2.47337 -2.65527,-5.4179 -0.814692,-7.31156 0.720328,-0.74112 1.80027,-1.39606 2.9255326,-1.77423 0.861566,-0.28956 1.147588,-0.32594 2.566638,-0.3265 1.385109,-3.8e-4 1.665131,0.0331 2.110346,0.25304 1.02724,0.50758 1.392949,1.22846 1.135671,2.23864 -0.192075,0.75418 -1.256407,1.79668 -3.035292,2.97306 -1.458079,0.96424 -2.218591,1.66179 -2.37317,2.17672 -0.193455,0.64444 0.785256,1.71662 1.588953,1.7407 0.558463,0.0167 0.96836,-0.424 1.053708,-1.13296 0.03516,-0.29203 0.121156,-0.60742 0.191107,-0.70084 0.253408,-0.33848 1.030496,-0.60875 1.757908,-0.61144 0.619532,-0.003 0.758087,0.0397 1.009062,0.30494 0.226169,0.23913 0.274201,0.38006 0.215799,0.63318 -0.293149,1.27056 -1.319328,2.63677 -2.425712,3.22949 -0.552391,0.29591 -0.81366,0.35696 -1.627635,0.38024 -0.565423,0.0161 -1.162343,-0.0384 -1.431943,-0.13101 z M 6.0136234,286.05606 c -0.414707,-0.38498 -0.8341995,-1.16471 -0.8391025,-1.55967 -0.00441,-0.3555 0.5582245,-0.94396 0.9025375,-0.94396 0.554706,0 1.019118,0.86074 1.029187,1.90749 0.01001,1.04056 -0.382929,1.25495 -1.092622,0.59614 z m 2.440197,-1.54466 c -0.29708,-0.18674 -0.750665,-1.07538 -0.835601,-1.63708 -0.09652,-0.63832 0.181861,-1.2949 0.632741,-1.49236 0.746571,-0.32696 1.177214,0.19176 1.231302,1.4831 0.05537,1.32214 -0.395619,2.04411 -1.028442,1.64634 z m 6.2203466,-0.296 c -0.567183,-0.42003 -0.63355,-1.8958 -0.135651,-3.01642 0.554085,-1.24709 1.622299,-1.98839 2.865272,-1.98839 1.008406,0 1.558607,0.54443 1.392372,1.37778 -0.238364,1.19492 -1.599227,2.96858 -2.689353,3.50512 -0.703006,0.34602 -1.086005,0.37861 -1.43264,0.12191 z m -3.329184,-0.61865 c -0.864024,-0.63984 -0.930455,-2.89666 -0.102157,-3.47047 0.789324,-0.54682 1.529294,-0.21789 1.649978,0.73339 0.08723,0.68763 -0.318017,2.06924 -0.750516,2.55877 -0.382119,0.43248 -0.437396,0.44484 -0.797305,0.17831 z"
       id="path2222" />
  </g>
</svg>
